<svg id="Group_3144" data-name="Group 3144" xmlns="http://www.w3.org/2000/svg" xmlns:xlink="http://www.w3.org/1999/xlink" width="36.03" height="36.03" viewBox="0 0 36.03 36.03">
  <defs>
    <clipPath id="clip-path">
      <rect id="Rectangle_1201" data-name="Rectangle 1201" width="36.03" height="36.03" fill="#bcbcbc"/>
    </clipPath>
  </defs>
  <g id="Group_3143" data-name="Group 3143" clip-path="url(#clip-path)">
    <path id="Path_6991" data-name="Path 6991" d="M73.958,99.735l.046.014a.042.042,0,0,0-.046-.014" transform="translate(-67.886 -91.545)" fill="#bcbcbc"/>
    <path id="Path_6992" data-name="Path 6992" d="M36.03.449c0-.357-.077-.449-.445-.449Q18.016.017.448,0C.085,0,0,.084,0,.447Q.016,18.014,0,35.581c0,.357.077.45.445.449q8.764-.02,17.528-.01,8.8,0,17.609.009c.363,0,.448-.084.448-.446q-.016-17.567,0-35.134M29.8,7.97l-.017.041H23.366V7.97ZM6.165,7.952h6.826v.041H6.149l.016-.041M27.771,24.437a.9.9,0,0,0,.306.716c.547.513,1.07,1.051,1.616,1.565a.471.471,0,0,1,.187.5c-.07.22-.282.106-.424.107q-4.316.011-8.633,0c-.139,0-.349.118-.42-.11-.064-.205.058-.351.207-.493.545-.515,1.079-1.042,1.616-1.566a.8.8,0,0,0,.306-.421c-.006-1.361-.015-2.722-.016-4.082,0-2.178,0-4.356,0-6.535,0-.142.059-.3-.061-.428q-1.579,4.03-3.159,8.059-1.007,2.566-2.021,5.129c-.081.205-.1.438-.448.415-.3-.02-.476-.057-.618-.368q-2.934-6.45-5.9-12.885a1.061,1.061,0,0,0-.246-.367q0,.217,0,.434,0,4.38-.011,8.759a1.4,1.4,0,0,0,.355.931c.767.923,1.527,1.852,2.29,2.779a2.068,2.068,0,0,1,.18.222c.181.3.083.481-.254.482q-3.275,0-6.55,0c-.111,0-.276.073-.326-.069a.413.413,0,0,1,.061-.426c.064-.071.121-.147.182-.221.754-.916,1.505-1.835,2.265-2.746a1.392,1.392,0,0,0,.352-.931Q8.594,17.543,8.6,12.2a1.423,1.423,0,0,0-.359-1c-.7-.805-1.359-1.637-2.043-2.452a.515.515,0,0,1-.124-.558c.05-.1.142-.058.215-.058q3.25,0,6.5,0c.074,0,.165-.038.219.055a.055.055,0,0,1,.033.066h0c.159.07.171.236.23.367q2.5,5.475,4.992,10.952c.061.134.127.265.213.442.647-1.609,1.276-3.172,1.9-4.736q1.36-3.389,2.72-6.777c.043-.107.043-.245.169-.309.062-.079.149-.047.226-.047q3.077,0,6.154,0c.077,0,.164-.031.226.046a.41.41,0,0,1-.134.534c-.548.512-1.077,1.045-1.629,1.552a.974.974,0,0,0-.342.784q.014,6.689,0,13.377" transform="translate(0 0)" fill="#bcbcbc"/>
  </g>
</svg>
