<svg xmlns="http://www.w3.org/2000/svg" width="38.904" height="31.609" viewBox="0 0 38.904 31.609">
  <g id="Group_2664" data-name="Group 2664" transform="translate(-303 -6554)">
    <g id="Group_2660" data-name="Group 2660" transform="translate(303 6554)">
      <g id="twitter" transform="translate(0)">
        <g id="Group_2635" data-name="Group 2635" transform="translate(0 0)">
          <path id="Path_31" data-name="Path 31" d="M38.9,51.742a16.628,16.628,0,0,1-4.6,1.26,7.931,7.931,0,0,0,3.509-4.408,15.939,15.939,0,0,1-5.057,1.931,7.975,7.975,0,0,0-13.8,5.454,8.212,8.212,0,0,0,.185,1.819A22.575,22.575,0,0,1,2.709,49.454,7.978,7.978,0,0,0,5.16,60.114a7.876,7.876,0,0,1-3.6-.982v.088a8.012,8.012,0,0,0,6.39,7.837,7.96,7.96,0,0,1-2.091.263,7.052,7.052,0,0,1-1.51-.136A8.051,8.051,0,0,0,11.8,72.738a16.025,16.025,0,0,1-9.889,3.4A14.937,14.937,0,0,1,0,76.03a22.453,22.453,0,0,0,12.235,3.579c14.676,0,22.7-12.157,22.7-22.7,0-.353-.012-.693-.029-1.031A15.911,15.911,0,0,0,38.9,51.742Z" transform="translate(0 -48)" fill="#bcbcbc"/>
        </g>
      </g>
    </g>
  </g>
</svg>
